<?xml version="1.0" encoding="UTF-8" standalone="no"?>
<!-- Created with Inkscape (http://www.inkscape.org/) -->

<svg
   width="128"
   height="128"
   viewBox="0 0 33.866667 33.866667"
   version="1.1"
   id="svg1"
   xml:space="preserve"
   inkscape:version="1.3 (0e150ed6c4, 2023-07-21)"
   sodipodi:docname="bishop.svg"
   inkscape:export-filename="pawn.svg"
   inkscape:export-xdpi="96"
   inkscape:export-ydpi="96"
   xmlns:inkscape="http://www.inkscape.org/namespaces/inkscape"
   xmlns:sodipodi="http://sodipodi.sourceforge.net/DTD/sodipodi-0.dtd"
   xmlns="http://www.w3.org/2000/svg"
   xmlns:svg="http://www.w3.org/2000/svg"><sodipodi:namedview
     id="namedview1"
     pagecolor="#505050"
     bordercolor="#eeeeee"
     borderopacity="1"
     inkscape:showpageshadow="0"
     inkscape:pageopacity="0"
     inkscape:pagecheckerboard="0"
     inkscape:deskcolor="#505050"
     inkscape:document-units="px"
     inkscape:zoom="5.1229957"
     inkscape:cx="50.946754"
     inkscape:cy="62.853849"
     inkscape:window-width="1920"
     inkscape:window-height="1080"
     inkscape:window-x="3000"
     inkscape:window-y="460"
     inkscape:window-maximized="1"
     inkscape:current-layer="layer2"
     showgrid="false" /><defs
     id="defs1" /><g
     inkscape:groupmode="layer"
     id="layer2"
     inkscape:label="bishop"><path
       style="display:inline;fill:#000000;stroke-width:0.586967"
       d="m 17.475929,7.0806459 c 0,0 -1.11273,0.997265 -2.29534,2.486162 -1.18263,1.4889221 -2.78653,3.6608391 -2.78653,3.6608391 0,0 -0.811287,0.963412 -1.330029,2.370005 -0.518744,1.406572 -0.137545,2.417702 -0.137545,2.417702 0,0 0.134882,0.732226 0.65418,1.354682 0.519344,0.622478 0.777964,0.667846 0.777964,0.667846 h 10.20863 c 0,0 0.43103,-0.10338 0.92119,-0.915603 0.49012,-0.812313 0.61036,-1.409124 0.61036,-1.409124 0,0 0.0554,-0.928049 -0.0133,-1.309869 -0.0687,-0.381819 -0.24872,-1.123339 -0.92617,-2.194191 -0.67745,-1.070852 -1.3571,-2.141968 -2.75461,-3.837385 -1.39748,-1.6954131 -2.92895,-3.2910641 -2.92895,-3.2910641 z"
       id="path44" /><rect
       style="display:inline;fill:#000000;stroke-width:0.636924"
       id="rect44"
       width="13.762583"
       height="1.0254551"
       x="10.583333"
       y="27.62188"
       rx="0.008660811"
       ry="0.0024879891" /><circle
       style="display:inline;fill:#000000;stroke-width:0.698791"
       id="path45"
       cx="17.527401"
       cy="23.375614"
       r="0.6706447" /><rect
       style="display:inline;fill:#000000;stroke-width:0.636924"
       id="rect49"
       width="10.267431"
       height="4.915863"
       x="12.3178"
       y="21.395269"
       rx="0.008660811"
       ry="0.0024879891" /><path
       style="display:inline;fill:#000000;stroke-width:0.636924"
       d="m 12.321389,21.399262 -0.510891,4.922953 h 11.290471 l -0.52345,-4.915514 z"
       id="path106" /><circle
       style="display:inline;fill:#000000;stroke-width:0.481071"
       id="path113"
       cx="17.382252"
       cy="5.0476422"
       r="1.0788924" /></g></svg>
