<?xml version="1.0" encoding="UTF-8" standalone="no"?>
<!-- Created with Inkscape (http://www.inkscape.org/) -->

<svg
   width="128"
   height="128"
   viewBox="0 0 33.866667 33.866667"
   version="1.1"
   id="svg1"
   xml:space="preserve"
   inkscape:version="1.3 (0e150ed6c4, 2023-07-21)"
   sodipodi:docname="bishop.svg"
   inkscape:export-filename="pawn.svg"
   inkscape:export-xdpi="96"
   inkscape:export-ydpi="96"
   xmlns:inkscape="http://www.inkscape.org/namespaces/inkscape"
   xmlns:sodipodi="http://sodipodi.sourceforge.net/DTD/sodipodi-0.dtd"
   xmlns="http://www.w3.org/2000/svg"
   xmlns:svg="http://www.w3.org/2000/svg"><sodipodi:namedview
     id="namedview1"
     pagecolor="#505050"
     bordercolor="#eeeeee"
     borderopacity="1"
     inkscape:showpageshadow="0"
     inkscape:pageopacity="0"
     inkscape:pagecheckerboard="0"
     inkscape:deskcolor="#505050"
     inkscape:document-units="px"
     inkscape:zoom="3.622505"
     inkscape:cx="70.393278"
     inkscape:cy="74.534059"
     inkscape:window-width="1920"
     inkscape:window-height="1080"
     inkscape:window-x="0"
     inkscape:window-y="0"
     inkscape:window-maximized="1"
     inkscape:current-layer="layer2"
     showgrid="false" /><defs
     id="defs1" /><g
     inkscape:groupmode="layer"
     id="layer2"
     inkscape:label="bishop"><path
       style="display:inline;fill:#000000;stroke-width:0.787302"
       d="m 17.592332,5.349228 c 0,0 -1.492519,1.3376373 -3.07877,3.3347048 -1.586252,1.9970982 -3.737576,4.9103042 -3.737576,4.9103042 0,0 -1.0881907,1.292229 -1.7839834,3.178901 -0.6957922,1.886641 -0.1844889,3.242876 -0.1844889,3.242876 0,0 0.1809182,0.982137 0.8774556,1.817042 0.6965947,0.834933 1.0434957,0.895785 1.0434957,0.895785 h 13.69289 c 0,0 0.578166,-0.138665 1.235602,-1.228104 0.657408,-1.08956 0.818687,-1.890065 0.818687,-1.890065 0,0 0.0744,-1.244797 -0.01785,-1.756934 -0.09225,-0.512136 -0.333628,-1.506741 -1.242298,-2.943081 C 24.306853,13.474318 23.395208,12.037622 21.520737,9.7635531 19.646295,7.4894837 17.592125,5.349228 17.592125,5.349228 Z"
       id="path44" /><rect
       style="display:inline;fill:#000000;stroke-width:0.787302"
       id="rect44"
       width="17.01193"
       height="1.2675653"
       x="9.0702543"
       y="32.046852"
       rx="0.010705631"
       ry="0.0030754039" /><circle
       style="display:inline;fill:#000000;stroke-width:0.787302"
       id="path45"
       cx="17.567493"
       cy="27.380352"
       r="0.75559002" /><rect
       style="display:inline;fill:#000000;stroke-width:0.787302"
       id="rect49"
       width="12.691573"
       height="6.076499"
       x="11.214234"
       y="24.350142"
       rx="0.010705631"
       ry="0.0030754039" /><path
       style="display:inline;fill:#000000;stroke-width:0.787302"
       d="m 11.21867,24.355085 -0.631518,6.085262 H 24.543326 L 23.896274,24.36428 Z"
       id="path106" /><circle
       style="display:inline;fill:#000000;stroke-width:0.787302"
       id="path113"
       cx="17.553667"
       cy="2.2667577"
       r="1.7656724" /></g></svg>
