<?xml version="1.0" encoding="UTF-8" standalone="no"?>
<!-- Created with Inkscape (http://www.inkscape.org/) -->

<svg
   width="820.87225"
   height="820.87225"
   viewBox="0 0 217.18912 217.18912"
   version="1.1"
   id="svg1"
   inkscape:version="1.3 (0e150ed6c4, 2023-07-21)"
   sodipodi:docname="chessboard_green.svg"
   xml:space="preserve"
   xmlns:inkscape="http://www.inkscape.org/namespaces/inkscape"
   xmlns:sodipodi="http://sodipodi.sourceforge.net/DTD/sodipodi-0.dtd"
   xmlns="http://www.w3.org/2000/svg"
   xmlns:svg="http://www.w3.org/2000/svg"><sodipodi:namedview
     id="namedview1"
     pagecolor="#505050"
     bordercolor="#eeeeee"
     borderopacity="1"
     inkscape:showpageshadow="0"
     inkscape:pageopacity="0"
     inkscape:pagecheckerboard="0"
     inkscape:deskcolor="#505050"
     inkscape:document-units="px"
     inkscape:zoom="0.5"
     inkscape:cx="783"
     inkscape:cy="388"
     inkscape:window-width="1900"
     inkscape:window-height="1036"
     inkscape:window-x="3009"
     inkscape:window-y="493"
     inkscape:window-maximized="1"
     inkscape:current-layer="layer1" /><defs
     id="defs1"><clipPath
       clipPathUnits="userSpaceOnUse"
       id="clipPath23"><path
         id="path24"
         style="fill:#ff0000;fill-opacity:1;fill-rule:nonzero;stroke:none;stroke-width:0.264583"
         d="M 20.251477,0 C 19.221753,0.79915972 18.187628,1.5926661 17.142106,2.3714315 14.611178,4.23873 12.016697,6.018081 9.4159628,7.7860882 6.8865009,9.4899464 4.3608964,11.198693 1.8401978,12.915491 1.2247543,13.335738 0.61407604,13.762931 0,14.185181 V 33.866667 H 33.866667 V 0 Z" /></clipPath><clipPath
       clipPathUnits="userSpaceOnUse"
       id="clipPath23-7"><path
         id="path24-5"
         style="fill:#ff0000;fill-opacity:1;fill-rule:nonzero;stroke:none;stroke-width:0.264583"
         d="M 20.251477,0 C 19.221753,0.79915972 18.187628,1.5926661 17.142106,2.3714315 14.611178,4.23873 12.016697,6.018081 9.4159628,7.7860882 6.8865009,9.4899464 4.3608964,11.198693 1.8401978,12.915491 1.2247543,13.335738 0.61407604,13.762931 0,14.185181 V 33.866667 H 33.866667 V 0 Z" /></clipPath><clipPath
       clipPathUnits="userSpaceOnUse"
       id="clipPath23-7-7"><path
         id="path24-5-3"
         style="fill:#ff0000;fill-opacity:1;fill-rule:nonzero;stroke:none;stroke-width:0.264583"
         d="M 20.251477,0 C 19.221753,0.79915972 18.187628,1.5926661 17.142106,2.3714315 14.611178,4.23873 12.016697,6.018081 9.4159628,7.7860882 6.8865009,9.4899464 4.3608964,11.198693 1.8401978,12.915491 1.2247543,13.335738 0.61407604,13.762931 0,14.185181 V 33.866667 H 33.866667 V 0 Z" /></clipPath><clipPath
       clipPathUnits="userSpaceOnUse"
       id="clipPath23-1"><path
         id="path24-9"
         style="fill:#ff0000;fill-opacity:1;fill-rule:nonzero;stroke:none;stroke-width:0.264583"
         d="M 20.251477,0 C 19.221753,0.79915972 18.187628,1.5926661 17.142106,2.3714315 14.611178,4.23873 12.016697,6.018081 9.4159628,7.7860882 6.8865009,9.4899464 4.3608964,11.198693 1.8401978,12.915491 1.2247543,13.335738 0.61407604,13.762931 0,14.185181 V 33.866667 H 33.866667 V 0 Z" /></clipPath></defs><g
     inkscape:label="Layer 1"
     inkscape:groupmode="layer"
     id="layer1"
     transform="translate(6.722507,6.722507)"><rect
       style="fill:#6c535d;stroke-width:0.264583;fill-opacity:1"
       id="rect3"
       width="217.18912"
       height="217.18912"
       x="-6.722507"
       y="-6.722507"
       rx="9.480752"
       ry="9.480752" /><rect
       style="fill:#536c53;stroke-width:0.264583"
       id="rect2"
       width="33.866665"
       height="33.866665"
       x="33.866665"
       y="0" /><rect
       style="fill:#f9f9f9;stroke-width:3.84033"
       id="rect1-5"
       width="33.866665"
       height="33.866665"
       x="67.73333"
       y="0" /><rect
       style="fill:#536c53;stroke-width:0.264583"
       id="rect2-3"
       width="33.866665"
       height="33.866665"
       x="101.6"
       y="0" /><rect
       style="fill:#f9f9f9;stroke-width:3.84033"
       id="rect1-9"
       width="33.866665"
       height="33.866665"
       x="135.46666"
       y="0" /><rect
       style="fill:#536c53;stroke-width:0.264583"
       id="rect2-9"
       width="33.866665"
       height="33.866665"
       x="0"
       y="33.866665" /><rect
       style="fill:#f9f9f9;stroke-width:3.84033"
       id="rect1-5-2"
       width="33.866665"
       height="33.866665"
       x="33.866665"
       y="33.866665" /><rect
       style="fill:#536c53;stroke-width:0.264583"
       id="rect2-3-0"
       width="33.866665"
       height="33.866665"
       x="67.73333"
       y="33.866665" /><rect
       style="fill:#f9f9f9;stroke-width:3.84033"
       id="rect1-9-2"
       width="33.866665"
       height="33.866665"
       x="101.6"
       y="33.866665" /><rect
       style="fill:#536c53;stroke-width:0.264583"
       id="rect2-1-3"
       width="33.866665"
       height="33.866665"
       x="135.46666"
       y="33.866665" /><rect
       style="fill:#f9f9f9;stroke-width:3.84033"
       id="rect1-9-2-2"
       width="33.866665"
       height="33.866665"
       x="169.33333"
       y="33.866665" /><rect
       style="fill:#536c53;stroke-width:0.264583"
       id="rect2-9-6"
       width="33.866665"
       height="33.866665"
       x="-2.7755576e-17"
       y="101.6" /><rect
       style="fill:#f9f9f9;stroke-width:3.84033"
       id="rect1-5-2-3"
       width="33.866665"
       height="33.866665"
       x="33.866665"
       y="101.6" /><rect
       style="fill:#536c53;stroke-width:0.264583"
       id="rect2-3-0-2"
       width="33.866665"
       height="33.866665"
       x="67.73333"
       y="101.6" /><rect
       style="fill:#f9f9f9;stroke-width:3.84033"
       id="rect1-9-2-0"
       width="33.866665"
       height="33.866665"
       x="101.59999"
       y="101.6" /><rect
       style="fill:#536c53;stroke-width:0.264583"
       id="rect2-1-3-6"
       width="33.866665"
       height="33.866665"
       x="135.46666"
       y="101.6" /><rect
       style="fill:#f9f9f9;stroke-width:3.84033"
       id="rect1-9-2-2-1"
       width="33.866665"
       height="33.866665"
       x="169.33333"
       y="101.6" /><rect
       style="fill:#f9f9f9;stroke-width:3.84033"
       id="rect1-7"
       width="33.866665"
       height="33.866665"
       x="0"
       y="67.73333" /><rect
       style="fill:#536c53;stroke-width:0.264583"
       id="rect2-36"
       width="33.866665"
       height="33.866665"
       x="33.866669"
       y="67.73333" /><rect
       style="fill:#f9f9f9;stroke-width:3.84033"
       id="rect1-5-1"
       width="33.866665"
       height="33.866665"
       x="67.73333"
       y="67.73333" /><rect
       style="fill:#536c53;stroke-width:0.264583"
       id="rect2-3-2"
       width="33.866665"
       height="33.866665"
       x="101.6"
       y="67.73333" /><rect
       style="fill:#f9f9f9;stroke-width:3.84033"
       id="rect1-9-9"
       width="33.866665"
       height="33.866665"
       x="135.46666"
       y="67.73333" /><rect
       style="fill:#536c53;stroke-width:0.264583"
       id="rect2-1-31"
       width="33.866665"
       height="33.866665"
       x="169.33333"
       y="67.73333" /><rect
       style="fill:#f9f9f9;stroke-width:3.84033"
       id="rect1-7-7"
       width="33.866665"
       height="33.866665"
       x="0"
       y="135.46666" /><rect
       style="fill:#536c53;stroke-width:0.264583"
       id="rect2-36-6"
       width="33.866665"
       height="33.866665"
       x="33.866669"
       y="135.46666" /><rect
       style="fill:#f9f9f9;stroke-width:3.84033"
       id="rect1-5-1-5"
       width="33.866665"
       height="33.866665"
       x="67.73333"
       y="135.46666" /><rect
       style="fill:#536c53;stroke-width:0.264583"
       id="rect2-3-2-6"
       width="33.866665"
       height="33.866665"
       x="101.6"
       y="135.46666" /><rect
       style="fill:#f9f9f9;stroke-width:3.84033"
       id="rect1-9-9-9"
       width="33.866665"
       height="33.866665"
       x="135.46666"
       y="135.46666" /><rect
       style="fill:#536c53;stroke-width:0.264583"
       id="rect2-1-31-3"
       width="33.866665"
       height="33.866665"
       x="169.33333"
       y="135.46666" /><rect
       style="fill:#f9f9f9;stroke-width:3.84033"
       id="rect1-5-2-3-5"
       width="33.866665"
       height="33.866665"
       x="33.866665"
       y="169.33333" /><rect
       style="fill:#536c53;stroke-width:0.264583"
       id="rect2-3-0-2-4"
       width="33.866665"
       height="33.866665"
       x="67.73333"
       y="169.33333" /><rect
       style="fill:#f9f9f9;stroke-width:3.84033"
       id="rect1-9-2-0-7"
       width="33.866665"
       height="33.866665"
       x="101.59999"
       y="169.33333" /><rect
       style="fill:#536c53;stroke-width:0.264583"
       id="rect2-1-3-6-4"
       width="33.866665"
       height="33.866665"
       x="135.46666"
       y="169.33333" /><rect
       style="display:inline;fill:#f9f9f9;stroke-width:3.84033"
       id="rect1"
       width="33.866665"
       height="33.866665"
       x="0"
       y="0"
       ry="8.3994017"
       rx="8.3994017" /><rect
       style="display:inline;fill:#f9f9f9;stroke-width:3.84033"
       id="rect1-53"
       width="33.866665"
       height="33.866665"
       x="0"
       y="0"
       ry="0"
       rx="0"
       clip-path="url(#clipPath23)" /><rect
       style="display:inline;fill:#f9f9f9;stroke-width:3.84033"
       id="rect1-78"
       width="33.866665"
       height="33.866665"
       x="-203.2"
       y="-203.20001"
       ry="8.3994017"
       rx="8.3994017"
       transform="scale(-1)" /><rect
       style="display:inline;fill:#f9f9f9;stroke-width:3.84033"
       id="rect1-53-4"
       width="33.866665"
       height="33.866665"
       x="0"
       y="0"
       ry="0"
       rx="0"
       clip-path="url(#clipPath23-1)"
       transform="rotate(180,101.6,101.6)" /><rect
       style="display:inline;fill:#536c53;stroke-width:3.84033"
       id="rect1-2"
       width="33.866665"
       height="33.866665"
       x="169.33336"
       y="0"
       ry="8.3994017"
       rx="8.3994017" /><rect
       style="display:inline;fill:#536c53;stroke-width:3.84033"
       id="rect1-53-2"
       width="33.866665"
       height="33.866665"
       x="0"
       y="0"
       ry="0"
       rx="0"
       clip-path="url(#clipPath23-7)"
       transform="matrix(-1,0,0,1,203.2,1.4399123e-7)" /><rect
       style="display:inline;fill:#536c53;stroke-width:3.84033"
       id="rect1-2-1"
       width="33.866665"
       height="33.866665"
       x="169.33337"
       y="0"
       ry="8.3994017"
       rx="8.3994017"
       transform="matrix(0,1,1,0,0,0)" /><rect
       style="display:inline;fill:#536c53;stroke-width:3.84033"
       id="rect1-53-2-2"
       width="33.866665"
       height="33.866665"
       x="0"
       y="0"
       ry="0"
       rx="0"
       clip-path="url(#clipPath23-7-7)"
       transform="rotate(-90,101.6,101.6)" /></g></svg>
