<?xml version="1.0" encoding="UTF-8" standalone="no"?>
<!-- Created with Inkscape (http://www.inkscape.org/) -->

<svg
   width="128"
   height="128"
   viewBox="0 0 128 128"
   version="1.1"
   id="svg1"
   inkscape:version="1.3 (0e150ed6c4, 2023-07-21)"
   sodipodi:docname="king.svg"
   inkscape:export-filename="king.svg"
   inkscape:export-xdpi="96"
   inkscape:export-ydpi="96"
   xmlns:inkscape="http://www.inkscape.org/namespaces/inkscape"
   xmlns:sodipodi="http://sodipodi.sourceforge.net/DTD/sodipodi-0.dtd"
   xmlns="http://www.w3.org/2000/svg"
   xmlns:svg="http://www.w3.org/2000/svg">
  <sodipodi:namedview
     id="namedview1"
     pagecolor="#505050"
     bordercolor="#eeeeee"
     borderopacity="1"
     inkscape:showpageshadow="0"
     inkscape:pageopacity="0"
     inkscape:pagecheckerboard="0"
     inkscape:deskcolor="#505050"
     inkscape:document-units="px"
     inkscape:zoom="3.1348402"
     inkscape:cx="66.670065"
     inkscape:cy="69.541025"
     inkscape:window-width="1920"
     inkscape:window-height="1080"
     inkscape:window-x="3000"
     inkscape:window-y="460"
     inkscape:window-maximized="1"
     inkscape:current-layer="layer1" />
  <defs
     id="defs1" />
  <g
     inkscape:label="Layer 1"
     inkscape:groupmode="layer"
     id="layer1">
    <path
       style="display:inline;fill:#000000;stroke-width:2.28122"
       d="m 64.651168,71.223078 c 0,0 -3.06491,-10.312891 -8.4053,-17.247704 -5.3404,-6.934806 -7.572,-8.65273 -7.572,-8.65273 0,0 -4.76161,-3.122793 -7.89227,-2.896376 -3.13065,0.226733 -6.50802,2.054524 -6.50802,2.054524 0,0 -2.77078,1.158962 -3.95538,5.039275 -1.18459,3.880312 1.31974,9.290154 1.31974,9.290154 0,0 1.8373,3.116406 4.72369,7.073371 2.88639,3.95687 4.30059,5.321986 4.30059,5.321986 z"
       id="path39" />
    <path
       style="display:inline;fill:#000000;stroke-width:2.28122;image-rendering:auto"
       d="m 70.357898,71.261965 c 0,0 3.06494,-10.312894 8.40529,-17.247704 5.34044,-6.934809 7.57197,-8.652733 7.57197,-8.652733 0,0 4.761652,-3.122786 7.892282,-2.896377 3.13063,0.226734 6.50802,2.054529 6.50802,2.054529 0,0 2.77084,1.158958 3.95541,5.039274 1.18457,3.880309 -1.31976,9.290155 -1.31976,9.290155 0,0 -1.83726,3.116405 -4.72371,7.073367 -2.88638,3.95687 -4.30055,5.321986 -4.30055,5.321986 z"
       id="path39-6" />
    <path
       style="display:inline;fill:#000000;stroke-width:2.28122"
       d="m 67.526158,67.064622 c 0,0 4.38046,-9.749189 6.66424,-13.34756 2.28375,-3.598458 4.76037,-6.734003 4.76037,-6.734003 0,0 0.49938,-0.547495 1.42613,-1.50505 0.92675,-0.957297 0.93516,-0.975662 0.93516,-0.975662 0,0 -1.8631,-4.475308 -4.32221,-6.986714 -2.45912,-2.511405 -4.4363,-3.548625 -5.30853,-3.900744 -0.87222,-0.351776 -2.46443,-0.556982 -2.46443,-0.556982 v -8.724468 h 4.82763 v -3.308761 h -5.01124 V 15 h -3.24275 v 6.059769 h -5.0772 v 3.111663 h 5.08232 v 8.884926 c 0,0 -3.34462,0.315552 -5.84579,2.88732 -2.50115,2.57167 -4.26394,4.801735 -4.26394,4.801735 0,0 -1.1009,1.611704 -1.43485,2.210843 -0.33399,0.599229 -0.59259,1.518413 -0.59259,1.518413 0,0 1.76841,1.248548 4.80092,5.664624 3.03248,4.41617 5.31906,8.81026 5.31906,8.81026 0,0 1.73677,3.378599 2.60993,5.336474 0.87318,1.957961 1.13774,2.778595 1.13774,2.778595 z"
       id="path40" />
    <rect
       style="display:inline;fill:#000000;stroke-width:2.28122"
       id="rect40"
       width="52.992264"
       height="4.4962292"
       x="40.927723"
       y="75.549339"
       rx="0.031019755"
       ry="0.0089110369" />
    <rect
       style="display:inline;fill:#000000;stroke-width:2.28122"
       id="rect42"
       width="55.572659"
       height="4.7699714"
       x="40.405354"
       y="108.09586"
       rx="0.031019755"
       ry="0.0089110369" />
    <rect
       style="display:inline;fill:#000000;stroke-width:2.28122"
       id="rect43"
       width="42.507805"
       height="19.400387"
       x="46.808865"
       y="84.316269"
       rx="0.031019755"
       ry="0.0089110369" />
    <path
       style="display:inline;fill:#000000;stroke-width:2.28122"
       d="m 46.811878,84.31767 -1.64006,19.44362 H 90.96279 L 89.304228,84.33155 Z"
       id="path43" />
  </g>
</svg>
