<?xml version="1.0" encoding="UTF-8" standalone="no"?>
<!-- Created with Inkscape (http://www.inkscape.org/) -->

<svg
   width="128"
   height="128"
   viewBox="0 0 128 128"
   version="1.1"
   id="svg1"
   inkscape:version="1.3 (0e150ed6c4, 2023-07-21)"
   sodipodi:docname="king.svg"
   inkscape:export-filename="king.svg"
   inkscape:export-xdpi="96"
   inkscape:export-ydpi="96"
   xmlns:inkscape="http://www.inkscape.org/namespaces/inkscape"
   xmlns:sodipodi="http://sodipodi.sourceforge.net/DTD/sodipodi-0.dtd"
   xmlns="http://www.w3.org/2000/svg"
   xmlns:svg="http://www.w3.org/2000/svg">
  <sodipodi:namedview
     id="namedview1"
     pagecolor="#505050"
     bordercolor="#eeeeee"
     borderopacity="1"
     inkscape:showpageshadow="0"
     inkscape:pageopacity="0"
     inkscape:pagecheckerboard="0"
     inkscape:deskcolor="#505050"
     inkscape:document-units="px"
     inkscape:zoom="2.2166667"
     inkscape:cx="90.225564"
     inkscape:cy="90"
     inkscape:window-width="946"
     inkscape:window-height="1035"
     inkscape:window-x="963"
     inkscape:window-y="34"
     inkscape:window-maximized="1"
     inkscape:current-layer="layer1" />
  <defs
     id="defs1" />
  <g
     inkscape:label="Layer 1"
     inkscape:groupmode="layer"
     id="layer1">
    <path
       style="display:inline;fill:#000000;stroke-width:2.80196"
       d="m 60.330217,73.11564 c 0,0 -3.764543,-12.667017 -10.32399,-21.184838 -6.559449,-8.517818 -9.300459,-10.627894 -9.300459,-10.627894 0,0 -5.848535,-3.835623 -9.69384,-3.557529 -3.845271,0.278515 -7.993599,2.523513 -7.993599,2.523513 0,0 -3.403262,1.42352 -4.858267,6.189588 -1.455002,4.766071 1.620993,11.41082 1.620993,11.41082 0,0 2.256697,3.82779 5.801962,8.688004 3.545265,4.86011 5.282293,6.536837 5.282293,6.536837 z"
       id="path39" />
    <path
       style="display:inline;fill:#000000;stroke-width:2.80196;image-rendering:auto"
       d="m 67.339616,73.1634 c 0,0 3.764567,-12.667015 10.32396,-21.184836 6.559502,-8.517821 9.300428,-10.627893 9.300428,-10.627893 0,0 5.848589,-3.835627 9.693848,-3.55753 3.845258,0.278515 7.993608,2.523511 7.993608,2.523511 0,0 3.40334,1.423522 4.85831,6.18959 1.45497,4.766068 -1.62102,11.41082 -1.62102,11.41082 0,0 -2.25664,3.827787 -5.802,8.688004 -3.545238,4.860107 -5.282228,6.536837 -5.282228,6.536837 z"
       id="path39-6" />
    <path
       style="display:inline;fill:#000000;stroke-width:2.80196"
       d="m 63.861472,68.007935 c 0,0 5.38039,-11.974637 8.185483,-16.39441 2.805069,-4.419881 5.84702,-8.271179 5.84702,-8.271179 0,0 0.613378,-0.67247 1.751674,-1.848604 1.138297,-1.175818 1.148633,-1.198374 1.148633,-1.198374 0,0 -2.288389,-5.496892 -5.308841,-8.581574 -3.020464,-3.084681 -5.448974,-4.358668 -6.520309,-4.791168 -1.071324,-0.432073 -3.026986,-0.684118 -3.026986,-0.684118 V 15.522504 H 71.86777 V 11.45845 H 65.712619 V 4.0585191 h -3.982962 v 7.4430339 h -6.236176 v 3.821961 h 6.242455 v 10.913089 c 0,0 -4.108098,0.387595 -7.180196,3.546408 -3.072089,3.158703 -5.237276,5.89783 -5.237276,5.89783 0,0 -1.352207,1.979605 -1.762381,2.715512 -0.41026,0.736011 -0.727857,1.865019 -0.727857,1.865019 0,0 2.17208,1.533552 5.896817,6.957689 3.724702,5.424243 6.533248,10.821375 6.533248,10.821375 0,0 2.133214,4.149832 3.205692,6.554629 1.072512,2.404904 1.397447,3.41287 1.397447,3.41287 z"
       id="path40" />
    <rect
       style="display:inline;fill:#000000;stroke-width:2.80196"
       id="rect40"
       width="65.088799"
       height="5.522583"
       x="31.191397"
       y="78.429428"
       rx="0.038100634"
       ry="0.010945159" />
    <rect
       style="display:inline;fill:#000000;stroke-width:2.80196"
       id="rect42"
       width="68.258224"
       height="5.8588128"
       x="30.549803"
       y="118.40534"
       rx="0.038100634"
       ry="0.010945159" />
    <rect
       style="display:inline;fill:#000000;stroke-width:2.80196"
       id="rect43"
       width="52.211063"
       height="23.828911"
       x="38.415039"
       y="89.197586"
       rx="0.038100634"
       ry="0.010945159" />
    <path
       style="display:inline;fill:#000000;stroke-width:2.80196"
       d="M 38.418743,89.199335 36.404307,113.08137 H 92.64798 L 90.610817,89.216385 Z"
       id="path43" />
  </g>
</svg>
