<?xml version="1.0" encoding="UTF-8" standalone="no"?>
<!-- Created with Inkscape (http://www.inkscape.org/) -->

<svg
   width="128"
   height="128"
   viewBox="0 0 33.866667 33.866667"
   version="1.1"
   id="svg1"
   xml:space="preserve"
   inkscape:version="1.3 (0e150ed6c4, 2023-07-21)"
   sodipodi:docname="knight.svg"
   inkscape:export-filename="pawn.svg"
   inkscape:export-xdpi="96"
   inkscape:export-ydpi="96"
   xmlns:inkscape="http://www.inkscape.org/namespaces/inkscape"
   xmlns:sodipodi="http://sodipodi.sourceforge.net/DTD/sodipodi-0.dtd"
   xmlns="http://www.w3.org/2000/svg"
   xmlns:svg="http://www.w3.org/2000/svg"><sodipodi:namedview
     id="namedview1"
     pagecolor="#505050"
     bordercolor="#eeeeee"
     borderopacity="1"
     inkscape:showpageshadow="0"
     inkscape:pageopacity="0"
     inkscape:pagecheckerboard="0"
     inkscape:deskcolor="#505050"
     inkscape:document-units="px"
     inkscape:zoom="3.798579"
     inkscape:cx="75.817825"
     inkscape:cy="60.285701"
     inkscape:window-width="1920"
     inkscape:window-height="1080"
     inkscape:window-x="3000"
     inkscape:window-y="460"
     inkscape:window-maximized="1"
     inkscape:current-layer="layer3"
     showgrid="false" /><defs
     id="defs1" /><g
     inkscape:groupmode="layer"
     id="layer3"
     inkscape:label="knight"><rect
       style="display:inline;fill:#000000;stroke-width:0.636924"
       id="rect44-2"
       width="13.762583"
       height="1.0254551"
       x="10.861507"
       y="28.538048"
       rx="0.008660811"
       ry="0.0024879891" /><path
       style="display:inline;fill:#000000;stroke-width:0.636612"
       d="m 12.878806,20.936961 c -0.002,0 -0.002,6.96e-4 -0.003,0.001 -6.5e-4,7.47e-4 -0.001,0.0013 -0.002,0.0021 -10e-4,0.0013 -0.003,0.0029 -0.004,0.0041 v 6.684347 c 0,0.0014 0.004,0.0026 0.009,0.0026 h 9.88415 c 0.005,0 0.008,-0.0012 0.008,-0.0026 V 20.93951 c 0,-0.0014 -0.003,-0.0026 -0.008,-0.0026 z"
       id="rect114" /><path
       style="display:inline;fill:#000000;stroke-width:0.636612"
       d="m 12.878296,20.935411 c -0.001,0.0016 -0.003,0.0031 -0.004,0.0047 -0.003,0.0031 -0.006,0.0061 -0.01,0.0088 l -2.84892,3.004468 2.86288,3.674711 z"
       id="path115" /><path
       style="display:inline;fill:#000000;stroke-width:0.636612"
       d="m 22.765696,27.623642 0.82531,-1.624982 V 13.084296 l -4.74922,-5.4794046 c 0,0 -0.47475,-0.470897 -1.04899,-0.515242 -0.57424,-0.04427 -1.00414,0.0072 -1.00414,0.0072 0,0 0.01,-0.01925 -0.38017,0.204038 -0.39007,0.223767 -0.50248,0.325496 -0.50248,0.325496 0,0 -0.53961,-0.717546 -1.08876,-0.951731 -0.54914,-0.234113 -0.97897,-0.219677 -0.97897,-0.219677 0,0 -0.36765,0.03369 -0.55174,0.106831 -0.18407,0.07314 -0.24126,0.08662 -0.24126,0.08662 l 1.61356,1.613552 -5.0495102,5.0495076 c 0,0 -0.64153,0.777577 -0.18479,1.321789 0.45673,0.54421 1.4545802,1.454581 1.4545802,1.454581 l 2.09939,-1.946869 h 2.07146 c 0,0 0.44117,-0.125838 0.77535,-0.31592 0.33417,-0.190081 0.65036,-0.560694 0.65036,-0.560694 0,0 0.13715,-0.204035 0.16698,-0.37973 0.0298,-0.175644 0,-1.646226 0,-1.646226 l 0.005,-0.572628 c 0,0 0.0597,-0.270493 0.33235,-0.272226 0.27268,-0.0018 0.45727,0.0073 0.45727,0.0073 0,0 0.30715,0.10611 0.34426,0.576743 0.0371,0.470608 0,1.943862 0,1.943862 l -0.27039,0.557178 1.21465,1.072277 -5.85033,6.3898 h 9.89171 z"
       id="path116" /><path
       style="display:inline;fill:#000000;stroke-width:0.636612"
       d="m 17.415956,5.2943164 c -0.81932,0.02478 -1.11159,0.242463 -1.11159,0.242463 l -0.77215,0.446379 0.55954,0.323283 c 0,0 0.0799,-0.05727 0.3469,-0.212699 0.26696,-0.155434 0.49116,-0.130651 0.49116,-0.130651 0,0 0.71832,-0.0096 1.29557,0.0072 0.57725,0.01684 1.54306,0.802 1.54306,0.802 l 4.97354,5.8264846 0.0486,0.03489 v 0.05727 c 5.9e-4,0.0025 7.7e-4,0.0048 9.1e-4,0.0073 9.1e-4,0.0073 2.2e-4,0.0025 9.1e-4,0.0096 h -0.003 v 10.040329 l 0.6652,-0.50605 v -9.780517 l -0.0396,-0.06088 -0.74604,-0.9288 -1.06184,-1.245878 -1.35653,-1.6412716 c 0,0 -1.03332,-1.260674 -1.80665,-2.085172 -0.77329,-0.824377 -1.40252,-0.998433 -1.40252,-0.998433 0,0 -0.80702,-0.232429 -1.62636,-0.207647 z"
       id="path117" /><path
       style="display:inline;fill:#000000;stroke-width:0.636612"
       d="m 24.663166,12.501371 0.13258,0.161209 0.003,-0.213903 z"
       id="path123" /><path
       style="display:inline;fill:#000000;stroke-width:0.264583"
       id="path20"
       d="m 13.348486,21.825519 c 0.004,-0.03743 0.0224,-0.07217 0.0385,-0.105755 0.0179,-0.03334 0.0349,-0.06714 0.0537,-0.09998 0.009,-0.01471 0.0145,-0.0324 0.0261,-0.04547 0.002,-0.0022 0.004,-0.0038 0.007,-0.0057 0.002,-0.0027 0.005,-0.0054 0.007,-0.0081 0.0173,-0.01846 0.0343,-0.03683 0.0511,-0.05587 0.012,-0.0154 0.0224,-0.03205 0.0345,-0.04733 0.0117,-0.01419 0.0232,-0.02845 0.0349,-0.04264 0.002,-0.0026 0.003,-0.0055 0.005,-0.0079 10e-4,-0.0012 0.003,-0.0014 0.004,-0.0026 0.006,-0.0071 7.9e-4,-0.0048 0.006,-0.01368 5.2e-4,-0.001 0.004,-6.9e-5 0.004,8.4e-5 0.005,-0.0066 0.005,-0.01571 0.009,-0.02304 2.6e-4,-5.56e-4 10e-4,6e-5 0.002,9e-5 5.3e-4,-0.0027 0.001,-0.0054 0.002,-0.0081 -10e-6,-0.0044 0.004,-0.0031 0.006,-0.0054 0.003,-0.0036 0.006,-0.0097 0.008,-0.01384 0.003,-0.0024 0.003,-0.0068 0.006,-0.0097 7.9e-4,-10e-4 0.003,-8.99e-4 0.004,-0.0019 0.004,-0.0038 0.006,-0.0085 0.0104,-0.01228 0.004,-0.0051 0.006,-0.01214 0.0101,-0.01703 0.001,-0.0011 0.003,-0.0011 0.004,-0.0023 0.003,-0.0047 0.005,-0.01038 0.009,-0.01521 0.003,-0.0079 0.009,-0.01327 0.014,-0.01979 0.002,-0.0023 0.003,-0.0052 0.005,-0.0073 0.001,-0.0012 0.003,-0.0017 0.004,-0.0025 10e-4,-0.0018 0.002,-0.0037 0.004,-0.0055 10e-4,-0.0026 0.002,-0.0055 0.003,-0.0078 5.3e-4,-7.4e-4 0.002,-3.5e-5 0.003,-7.14e-4 0.004,-0.0047 0.005,-0.01127 0.008,-0.01622 7.9e-4,-3.97e-4 0.002,-5.56e-4 0.002,-0.0012 0.002,-0.0032 0.003,-0.0085 0.004,-0.01181 0.002,-0.0042 0.006,-0.0074 0.008,-0.0115 0.006,-0.01253 0.009,-0.02691 0.017,-0.03848 8e-4,-0.002 10e-4,-0.0044 0.002,-0.006 5.2e-4,-6.35e-4 0.002,5.03e-4 0.002,-2.7e-5 0.003,-0.0022 0.007,-0.0149 0.008,-0.01882 0.003,-6.08e-4 0.004,-0.0058 0.006,-0.0074 5.3e-4,-5.56e-4 0.002,0.0015 0.002,9.79e-4 0.005,-0.0033 3e-5,-0.0066 0.005,-0.0021 0.003,-0.0033 0.002,-0.0086 0.005,-0.01239 2.6e-4,-6.09e-4 0.001,0.0016 0.002,0.0011 0.003,-0.0033 0.002,-0.01102 0.005,-0.0034 2.7e-4,-0.0041 0.005,-0.0058 0.007,-0.0089 10e-4,-0.0021 10e-4,-0.0048 0.003,-0.0068 5.3e-4,-6.61e-4 0.002,5.3e-5 0.002,8e-5 7.9e-4,-0.0018 0.002,-0.0036 0.003,-0.0055 7.9e-4,-0.0011 0.002,-0.0022 0.002,-0.0033 7.9e-4,-0.0023 10e-4,-0.0049 0.002,-0.0069 7.9e-4,-0.0012 0.004,0.0013 0.004,1.49e-4 0.002,-0.0027 0.003,-0.0063 0.005,-0.0092 0.009,-0.0068 0.0135,-0.01595 0.0176,-0.02597 0.007,-0.0013 0.005,-0.0097 0.008,-0.01435 2.6e-4,-5.82e-4 0.002,7.67e-4 0.002,2.56e-4 0.002,-0.0057 8e-4,-0.0037 0.004,-0.0066 0.003,-0.0043 0.002,-0.0097 0.004,-0.01413 2.6e-4,-5.56e-4 10e-4,0.0013 0.002,8.73e-4 10e-4,-0.0011 2e-4,-0.0039 0.002,-0.0043 0.005,-0.0014 -0.002,0.01104 0.003,-2.49e-4 0.004,0.0093 -7.9e-4,5.55e-4 0.004,-4.5e-4 0.001,-2.91e-4 5.2e-4,0.004 0.002,0.0035 0.004,-0.0017 10e-4,-0.01275 0.006,-0.0053 0.004,-0.0095 0.012,-0.01555 0.0164,-0.0247 0.001,-3.44e-4 0.002,-6.61e-4 0.003,-0.001 0.001,8.99e-4 0.002,0.003 0.003,0.0027 0.002,-3.44e-4 0.002,-0.0033 0.003,-0.004 0.004,-0.0015 0.002,0.0075 0.009,-0.0071 0.005,0.0012 0.005,-0.0044 0.008,-0.0056 0.001,-3.7e-4 0.002,0.0016 0.003,0.001 0.009,-0.0063 -10e-4,-0.0058 0.007,-0.0055 0.008,-0.0063 -0.004,0.0036 0.006,-0.01 5.3e-4,-7.68e-4 0.002,9e-5 0.003,-6.62e-4 0.002,-0.0019 0.001,-0.0049 0.003,-0.0067 5.3e-4,-6.35e-4 0.002,6.62e-4 0.002,5.03e-4 10e-4,-1.8e-4 0.002,-9.53e-4 0.002,-0.0015 0.005,0.0053 6e-5,0.0018 0.006,-0.0027 7.9e-4,-5.82e-4 0.002,0.0014 0.003,7.41e-4 0.002,-0.0017 0.001,-0.0048 0.003,-0.0066 5.3e-4,-6.08e-4 0.002,0.0012 0.002,5.83e-4 0.002,-0.0019 0.002,-0.0046 0.003,-0.0069 0.004,-7.93e-4 0.002,0.0062 0.004,0.006 0.002,-9.7e-5 10e-4,-0.0041 0.003,-0.0053 0.006,-0.0046 -2.7e-4,0.01482 0.007,-1.09e-4 0.005,0.0018 0.005,-0.0058 0.008,-0.0084 7.9e-4,-6.35e-4 0.002,5.56e-4 0.003,1.28e-4 0.002,-9.53e-4 0.006,-0.0064 0.007,-0.0077 0.008,-0.011 0.0176,-0.02029 0.0241,-0.03211 0.007,-0.0042 5e-5,-0.0014 0.007,-1.29e-4 10e-4,2.05e-4 0.002,-9.53e-4 0.003,-6.88e-4 0.006,0.0015 0.002,0.0053 0.0107,-0.0034 0.0132,5.02e-4 10e-4,0.0043 0.0115,-0.0032 10e-4,-6.88e-4 0.003,3.97e-4 0.003,-4.5e-4 0.009,-0.0094 -5.3e-4,-0.0061 0.007,-0.0081 10e-4,-0.0026 0.002,-0.0053 0.003,-0.0079 7.9e-4,-1.9e-5 0.002,5.82e-4 0.002,-5.6e-5 0.002,-0.0033 0.008,-0.01948 0.01,-0.02378 0.006,-4.7e-5 -0.002,7.41e-4 0.005,-0.0057 5.2e-4,-5.82e-4 0.002,0.002 0.002,0.0014 0.002,-0.0012 8e-4,-0.0041 0.002,-0.0052 8e-4,-5.55e-4 0.001,0.0017 0.002,0.0021 5.3e-4,3.18e-4 10e-4,-3.3e-5 0.002,-4.9e-5 0.004,0.0071 -2e-5,0.0024 0.005,-0.0014 7.9e-4,-5.29e-4 0.002,7.41e-4 0.003,0.0011 10e-4,-0.0022 10e-4,-0.0047 0.003,-0.0065 5.3e-4,-6.09e-4 0.002,9.26e-4 0.002,7.14e-4 10e-4,-2.91e-4 0.002,-0.0014 0.003,-0.0021 0.006,0.0059 0.007,-0.0042 0.009,-0.0076 0.006,-0.0074 5.3e-4,0.01017 0.009,-0.0037 0.006,0.0012 -2.1e-4,8.73e-4 0.006,-0.0065 5.3e-4,-6.35e-4 0.002,6.35e-4 0.002,2.91e-4 0.003,-0.0015 0.006,-0.0079 0.008,-0.0107 0.009,-0.006 0.019,-0.0093 0.0289,-0.01347 0.002,-0.001 0.005,-0.0017 0.007,-0.0031 0.008,-0.0053 0.006,-0.0074 0.0152,-0.01149 0.003,-0.0012 0.005,-0.0012 0.008,-0.0022 0.0103,-0.0037 0.0105,-0.0049 0.0201,-0.01164 0.004,-0.002 0.008,-0.0038 0.0123,-0.0061 0.0316,-0.01883 -0.003,-0.0022 0.0369,-0.0225 0.0331,-0.01695 0.0686,-0.02886 0.10323,-0.04219 0.0922,-0.03055 0.1847,-0.06054 0.27869,-0.08517 0.0554,-0.01452 0.13527,-0.03197 0.19074,-0.04445 0.13904,-0.02591 0.0695,-0.01357 0.20861,-0.03702 0,0 -0.8328,-0.117029 -0.8328,-0.117029 v 0 c -0.13832,0.02552 -0.0692,0.01214 -0.20737,0.04014 -0.1834,0.03699 -0.36555,0.08028 -0.54631,0.128504 -0.0215,0.006 -0.0433,0.01135 -0.0646,0.01815 -0.0172,0.0055 -0.0624,0.02388 -0.0804,0.03115 -0.0189,0.0076 -0.038,0.01443 -0.0568,0.02239 -0.006,0.0024 -0.0108,0.0054 -0.0161,0.008 -0.015,0.0058 -0.022,0.0104 -0.0351,0.01904 -0.0142,0.0093 -0.002,2.38e-4 -0.0161,0.0074 -0.003,0.0014 -0.005,0.0034 -0.008,0.0051 -0.0129,0.0092 -0.0249,0.01963 -0.0362,0.03064 -0.003,0.001 -0.007,0.0017 -0.01,0.0038 -10e-4,0.0011 -10e-4,0.0037 -0.003,0.0041 -0.007,0.0016 0.005,-0.01292 -0.005,0.0013 -0.007,-0.0037 -0.003,0.0082 -0.009,0.0091 -0.002,3.71e-4 -0.003,-0.0083 -0.01,0.0056 -10e-4,7.41e-4 -0.002,0.0013 -0.003,0.0022 -10e-4,0.0014 -10e-4,0.0038 -0.003,0.0047 -7.9e-4,4.76e-4 -0.001,-0.0026 -0.002,-0.0021 -0.002,10e-4 -0.002,0.0039 -0.003,0.0052 -5.3e-4,5.29e-4 -0.002,-3.17e-4 -0.002,-4.76e-4 -10e-4,0.0026 -0.002,0.0053 -0.003,0.0079 -0.002,0.0036 -0.003,0.008 -0.005,0.01157 -2.7e-4,5.29e-4 -0.002,-4.23e-4 -0.002,1.02e-4 -10e-4,0.002 -10e-4,0.0047 -0.002,0.0067 -2.6e-4,5.55e-4 -0.001,1.99e-4 -0.002,2.91e-4 -7.9e-4,0.002 -0.002,0.0039 -0.003,0.0059 -0.003,-0.0021 -0.005,0.0027 -0.007,4.49e-4 -7.9e-4,-8.46e-4 -2.6e-4,-0.0034 -0.002,-0.0033 -0.005,5.56e-4 -6e-5,0.0091 -0.004,-5.5e-5 -0.008,0.0084 0.002,-2.56e-4 -0.005,-3.44e-4 -0.002,-1.9e-5 -0.002,0.0027 -0.003,0.0032 -10e-4,3.44e-4 -0.002,-0.0016 -0.003,-10e-4 -0.004,0.0025 -0.004,0.0084 -0.008,0.0106 -0.0124,0.0036 -0.0151,0.01889 -0.022,0.02841 -0.008,0.0012 -0.0142,0.01092 -0.0235,0.01084 -0.01,0.0019 -0.005,0.0034 -0.0113,0.0066 -0.004,0.0021 -0.006,-0.0053 -0.009,0.0024 -7.9e-4,-9.52e-4 -0.001,-0.0035 -0.002,-0.0028 -0.004,0.0028 -0.002,0.0095 -0.006,0.01188 -8e-4,4.76e-4 -0.002,-0.0024 -0.002,-0.0017 -0.003,0.0038 -0.002,0.0096 -0.006,0.01332 -0.004,-0.0058 7.9e-4,-6.35e-4 -0.004,0.002 -7.9e-4,4.5e-4 -10e-4,-0.0027 -0.002,-0.0022 -0.002,9e-4 -0.002,0.0037 -0.003,0.0049 -7.9e-4,5.02e-4 -0.002,-5.3e-4 -0.002,-7.94e-4 -10e-4,0.0023 -0.002,0.0047 -0.003,0.007 -0.002,0.0025 -0.003,0.0064 -0.006,0.0085 -8e-4,5.29e-4 -10e-4,-0.002 -0.002,-0.0016 -0.002,8.2e-4 -10e-4,0.0037 -0.003,0.0043 -10e-4,3.97e-4 -0.002,-0.0015 -0.002,-0.0022 -10e-4,8.47e-4 -0.002,0.0017 -0.003,0.0025 -10e-4,0.0016 -0.002,0.0032 -0.003,0.0048 -7.9e-4,-1.31e-4 -0.002,-9.79e-4 -0.003,-3.97e-4 -0.002,0.0016 -0.002,0.0043 -0.004,0.0061 -0.003,0.0034 -0.008,0.004 -0.009,0.0094 -7.9e-4,-7.67e-4 -10e-4,-0.0025 -0.002,-0.0023 -0.003,5.82e-4 -0.0132,0.02148 -0.015,0.02467 -0.008,0.0015 -0.01,0.01288 -0.0177,0.01302 -5.3e-4,0.0015 -0.002,0.0085 -0.005,0.0096 -5.3e-4,1.83e-4 -10e-4,-0.0012 -0.002,-7.14e-4 -0.002,0.0026 -0.006,0.014 -0.006,0.01675 -0.005,0.0049 -0.004,0.01359 -0.007,0.01953 -5.3e-4,9.26e-4 -0.002,-0.0036 -0.003,-7.68e-4 -0.001,0.002 -0.003,0.0034 -0.004,0.0054 -10e-4,0.002 -8e-4,0.0045 -0.002,0.0063 -2.7e-4,5.29e-4 -8e-4,-0.0013 -0.002,-0.0012 -0.003,2.49e-4 -0.004,0.0078 -0.005,0.0078 -0.008,0.0024 -0.0137,0.01343 -0.0183,0.01986 -7.9e-4,0.0011 -0.002,0.0023 -0.003,0.0031 -5.3e-4,4.5e-4 -0.002,-1.42e-4 -0.002,4.5e-4 -0.009,0.01115 0.003,4.49e-4 -0.005,0.01215 -2.7e-4,5.3e-4 -0.001,-6.08e-4 -0.002,-2.54e-4 -10e-4,7.14e-4 -0.002,0.0021 -0.003,0.0031 -0.005,0.0018 0.002,-0.0012 -0.005,0.0069 -5.3e-4,6.09e-4 -0.002,-5.29e-4 -0.002,-5.3e-5 -0.003,0.0022 -0.004,0.0071 -0.008,0.0084 -7.9e-4,0.0024 -0.002,0.0099 -0.005,0.0127 -2.6e-4,3.7e-4 -0.001,-2.92e-4 -0.002,1.61e-4 -10e-4,0.002 -5.3e-4,0.0046 -0.002,0.0064 -7.9e-4,8.73e-4 -0.002,-0.006 -0.003,-9.53e-4 -0.004,0.01182 -0.01,0.02219 -0.0136,0.03407 -0.006,0.0061 -0.007,0.01462 -0.0103,0.02218 -0.004,0.0098 -0.008,0.0193 -0.0155,0.02659 -0.004,0.0056 -0.006,0.01201 -0.0101,0.0176 -0.001,0.0018 -0.004,0.0025 -0.005,0.0044 -10e-4,0.0019 -0.002,0.004 -0.003,0.006 -0.002,0.004 -0.006,0.006 -0.008,0.01 -0.001,0.0019 -7.9e-4,0.0042 -0.002,0.0061 -2.7e-4,5.03e-4 -10e-4,1.82e-4 -0.002,2.64e-4 -0.006,0.0079 0.002,-0.0032 -0.006,0.01045 -0.005,0.0084 -0.0108,0.01638 -0.0169,0.02382 -0.002,0.0021 -0.003,0.0041 -0.005,0.0062 -0.002,0.0014 -0.004,0.0024 -0.005,0.0041 -0.005,0.007 -0.009,0.01563 -0.0163,0.02131 -0.007,0.01136 -0.0135,0.0224 -0.0204,0.0336 -0.008,0.0095 -0.0121,0.02033 -0.0165,0.03161 -0.004,-0.0018 5.2e-4,-4.76e-4 -0.004,0.0059 -5.3e-4,0.001 -0.003,-0.0019 -0.003,-0.0011 -0.007,0.0066 0.001,0.002 -0.004,0.0047 -0.002,0.0042 -0.002,0.0088 -0.004,0.01263 -7.9e-4,0.0012 -0.005,-0.0047 -0.004,0.0021 -0.006,0.0104 2.2e-4,0.0033 -0.006,0.0097 -0.0102,0.01512 -0.022,0.02914 -0.0326,0.04396 -0.0101,0.01474 -0.0213,0.02869 -0.0325,0.04259 -0.015,0.02016 -0.0317,0.03909 -0.0461,0.05978 -0.003,0.0046 -0.007,0.009 -0.01,0.01382 -0.012,0.02049 -0.0175,0.0444 -0.029,0.06516 -0.0131,0.03352 -0.0266,0.06691 -0.0414,0.09975 -0.018,0.03613 -0.0357,0.07391 -0.0633,0.103727 z" /><path
       style="display:inline;fill:#000000;stroke-width:0.264583"
       id="path21"
       d="m 14.261266,21.110553 c 0.10288,-0.05575 0.2128,-0.09385 0.32471,-0.126414 0.10015,-0.02733 0.20354,-0.03402 0.30678,-0.03628 0.016,-1.26e-4 0.032,-2.91e-4 0.048,-3.7e-4 0.0182,-9.3e-5 0.0904,-1.91e-4 0.10692,-1.66e-4 0.0184,2.8e-5 0.0736,2.1e-4 0.0552,2.13e-4 -1.35237,2.64e-4 -1.09496,5.56e-4 0.12307,-0.0034 0.14562,-0.007 0.29046,-0.02438 0.43592,-0.03415 0.16249,-0.0073 0.32474,-0.01799 0.48732,-0.02333 0.17869,-0.0024 0.35711,-0.01194 0.53573,-0.01681 0.0315,-6.35e-4 0.063,-0.0013 0.0945,-0.0019 0.0366,-6.62e-4 0.0732,-0.0013 0.10976,-0.0017 0.0397,-5.03e-4 0.1588,-0.0011 0.1191,-0.0011 -1.51589,-2.91e-4 -0.88606,-0.0055 -0.55019,0.01017 0.22785,0.01224 0.45395,0.04381 0.68072,0.06774 0.19531,0.02248 0.39171,0.03042 0.58812,0.03464 0.15899,0.0014 0.0797,7.94e-4 0.23799,0.0018 0,0 0.94379,-0.14897 0.94379,-0.14897 v 0 c -0.15576,-6.35e-4 -0.0786,-7.4e-5 -0.23156,-0.0016 -0.19582,-0.0027 -0.39182,-0.0069 -0.58683,-0.02645 -0.23095,-0.0238 -0.46147,-0.05171 -0.69286,-0.07069 -0.55469,-0.03473 -1.11107,-0.01897 -1.66649,-0.01001 -0.17931,0.0059 -0.35858,0.01282 -0.53794,0.01719 -0.1634,0.0069 -0.32673,0.01594 -0.48994,0.02643 -0.14674,0.01164 -0.29341,0.02635 -0.4407,0.02898 1.96406,7.67e-4 0.29831,-0.01083 -0.34077,0.0052 -0.10352,0.0091 -0.20587,0.02711 -0.30433,0.06142 -0.11571,0.03942 -0.22727,0.08896 -0.3382,0.140168 z" /><path
       style="display:inline;fill:#000000;stroke-width:0.264583"
       id="path22"
       d="m 14.639716,21.400945 c 0.15362,-0.06995 0.31339,-0.123639 0.47511,-0.171301 0.27764,-0.07358 0.55995,-0.127404 0.84207,-0.180398 0.2603,-0.04382 0.51938,-0.0942 0.77842,-0.14479 0.19643,-0.03807 0.39539,-0.05852 0.59411,-0.07997 0.19379,-0.0193 0.38865,-0.02291 0.58324,-0.02529 0.0769,-0.003 0.15368,-0.0065 0.23051,-0.01 0,0 -0.96488,-0.148024 -0.96488,-0.148024 v 0 c -0.0728,0.0038 -0.14564,0.0076 -0.21856,0.0089 -0.1951,0.0048 -0.39039,0.01116 -0.58438,0.03401 -0.19684,0.02204 -0.39333,0.04801 -0.5872,0.08939 -0.25526,0.05181 -0.51138,0.09875 -0.76759,0.145631 -0.28499,0.05589 -0.57082,0.110264 -0.85063,0.188888 -0.17297,0.05233 -0.34311,0.111782 -0.51268,0.174137 z" /><path
       style="display:inline;fill:#000000;stroke-width:0.264583"
       id="path23"
       d="m 15.450006,21.236255 c 0.18138,-0.07945 0.38143,-0.08571 0.576,-0.100887 0.38165,-0.02409 0.76369,-0.04077 1.1453,-0.06592 0.33749,-0.01908 0.67124,-0.07333 1.0038,-0.131139 0.23359,-0.04558 0.4714,-0.05874 0.70855,-0.06994 0,0 -0.91186,-0.139498 -0.91186,-0.139498 v 0 c -0.24461,0.01426 -0.4898,0.03019 -0.73067,0.07794 -0.32684,0.05682 -0.65529,0.105142 -0.9869,0.123506 -0.38501,0.02491 -0.77054,0.03987 -1.15546,0.06608 -0.21452,0.01897 -0.43004,0.03815 -0.63122,0.121028 z" /><path
       style="display:inline;fill:#000000;stroke-width:0.264583"
       id="path24"
       d="m 16.289406,21.420742 c 0.0418,-0.02413 0.0734,-0.0443 0.12204,-0.05995 0.31523,-0.101337 0.66477,-0.126354 0.99148,-0.162919 0.68118,-0.06186 1.36498,-0.08612 2.04859,-0.0996 0.37439,-0.0066 0.7486,-0.01816 1.12267,-0.03459 0.23698,-0.0076 0.47381,-0.0191 0.71078,-0.02717 0.0877,2.65e-4 0.17373,-0.0031 0.25997,-0.0183 0.0684,-0.0027 0.13692,-0.0024 0.20537,-0.0027 0.0471,-1.67e-4 0.0942,-1.91e-4 0.14135,-1.93e-4 0.0163,-10e-7 0.0651,10e-6 0.0488,9e-6 -0.92242,-3.6e-5 -1.22433,-2.47e-4 -0.86766,-10e-6 0.1115,-0.0024 0.22278,0.0029 0.33412,0.0078 0.12047,0.0051 0.24104,0.0067 0.36159,0.0084 0.0874,1.43e-4 0.17295,0.01419 0.25718,0.03664 0.0516,0.01401 0.10034,0.03607 0.14879,0.05835 0.0293,0.02067 0.009,0.0873 0.005,0.117867 -0.0155,0.05332 -0.0258,0.107489 -0.0307,0.162742 -0.006,0.06274 -0.005,0.125836 -0.001,0.18864 0.009,0.107129 0.027,0.213349 0.0378,0.320348 0.0123,0.10522 0.0197,0.210872 0.0245,0.316666 0.006,0.104269 0.006,0.208673 0.007,0.313056 7e-5,0.110617 -7.9e-4,0.221231 -10e-4,0.331846 10e-4,0.113872 0.003,0.227768 -0.002,0.341574 -0.005,0.123715 -0.0141,0.247156 -0.0291,0.370075 -0.0142,0.126266 -0.0355,0.251476 -0.0556,0.376875 -0.0231,0.12882 -0.0409,0.258442 -0.0556,0.388461 -0.0131,0.132818 -0.0249,0.265726 -0.0373,0.398608 -0.0112,0.120176 -0.0192,0.240752 -0.0322,0.360741 -0.0113,0.09295 -0.0224,0.185944 -0.0341,0.27886 -0.01,0.09726 -0.0175,0.194707 -0.0254,0.29214 -0.006,0.09856 -0.01,0.19722 -0.0154,0.295804 -0.004,0.08804 -0.0117,0.175604 -0.0206,0.263239 -0.006,0.08408 -0.0132,0.168008 -0.0261,0.251328 -0.007,0.06277 -0.0191,0.124658 -0.0284,0.187066 -0.009,0.0437 -0.0145,0.08769 -0.0269,0.130619 -0.009,0.0393 -0.0144,0.07929 -0.021,0.119068 -0.007,0.03941 -0.009,0.0793 -0.0105,0.119187 -0.002,0.03462 -0.009,0.06895 -0.012,0.10364 -0.003,0.03705 -0.004,0.07427 -0.005,0.111455 -2.6e-4,0.03328 -1.9e-4,0.06656 -1.5e-4,0.09985 0.001,0.03198 0.0104,0.0628 0.0139,0.09452 0.002,0.02679 0.003,0.05734 -0.009,0.08214 -0.0104,0.02339 -0.0142,0.04885 -0.0178,0.07397 0,0 0.99489,0.01545 0.99489,0.01545 v 0 c 0.004,-0.02125 0.0107,-0.04143 0.0166,-0.06215 0.008,-0.03908 0.0137,-0.07826 0.009,-0.11816 -0.002,-0.02898 -0.004,-0.05815 -0.0133,-0.0859 -4e-5,-0.03289 -1.2e-4,-0.06578 2e-5,-0.09866 2.6e-4,-0.03411 5.3e-4,-0.06828 0.004,-0.102269 0.004,-0.03704 0.013,-0.07358 0.0129,-0.110972 7.9e-4,-0.03525 0.003,-0.07054 0.009,-0.105362 0.006,-0.03734 0.0135,-0.07464 0.0219,-0.111601 0.01,-0.04684 0.0153,-0.09458 0.0246,-0.141582 0.007,-0.06244 0.0178,-0.124497 0.0231,-0.18719 0.01,-0.08506 0.0186,-0.170233 0.0264,-0.255468 0.007,-0.0885 0.0125,-0.177028 0.0168,-0.265716 0.007,-0.09804 0.008,-0.196289 0.0148,-0.29433 0.008,-0.09618 0.0166,-0.192358 0.0278,-0.288203 0.0111,-0.0938 0.0209,-0.187815 0.0304,-0.281779 0.009,-0.120335 0.0169,-0.240773 0.0282,-0.360942 0.0116,-0.132069 0.022,-0.264236 0.0361,-0.396076 0.0155,-0.128714 0.0339,-0.256936 0.0581,-0.384331 0.0202,-0.126529 0.0388,-0.253268 0.0519,-0.380772 0.0147,-0.125724 0.0319,-0.251375 0.0352,-0.37808 0.003,-0.114975 -7.9e-4,-0.230066 0.002,-0.345071 -2.6e-4,-0.110666 -10e-4,-0.221331 -10e-4,-0.331998 5.3e-4,-0.106051 0.002,-0.212195 -7.9e-4,-0.318202 -0.006,-0.107241 -0.0212,-0.213615 -0.0327,-0.32039 -0.009,-0.105546 -0.0211,-0.210712 -0.0269,-0.316489 -0.003,-0.05783 8e-4,-0.115741 0.005,-0.17347 0.006,-0.05354 0.0185,-0.105762 0.0291,-0.158562 0.01,-0.06743 0.0179,-0.13794 -0.003,-0.204137 -0.0362,-0.06012 -0.10009,-0.08544 -0.16337,-0.110448 -0.0852,-0.03095 -0.17302,-0.05815 -0.26433,-0.06162 -0.1213,-0.0087 -0.24322,-0.0021 -0.36471,-0.0083 -0.11026,-0.004 -0.22022,-0.01412 -0.33059,-0.01232 -0.42091,-1.2e-5 -0.84184,-0.0022 -1.26274,8.73e-4 -0.0721,0.0012 -0.1449,7.14e-4 -0.21598,0.01445 -0.0779,0.0087 -0.15685,0.0045 -0.23488,0.01193 -0.22964,0.01173 -0.45935,0.02138 -0.68909,0.03093 -0.35964,0.01776 -0.71948,0.02903 -1.0794,0.03936 -0.67437,0.02205 -1.34854,0.05471 -2.02098,0.111361 -0.21773,0.02393 -0.4363,0.04486 -0.65263,0.08026 -0.0812,0.01329 -0.16203,0.02903 -0.2421,0.04788 -0.12545,0.02953 -0.24209,0.05996 -0.341,0.144201 z" /><path
       style="display:inline;fill:#000000;stroke-width:0.264583"
       id="path25"
       d="m 13.170436,20.610175 c -0.0283,0.07101 -0.0622,0.139613 -0.0927,0.209708 -0.0242,0.0423 -0.0435,0.08657 -0.0603,0.132169 -0.0147,0.04116 -0.0318,0.08136 -0.0481,0.121879 -0.0151,0.03073 -0.0256,0.06137 -0.0337,0.09465 -0.009,0.05124 -0.02,0.102086 -0.0273,0.153653 -0.0109,0.04302 -0.0141,0.08722 -0.0202,0.130978 -0.008,0.04319 -0.0135,0.08707 -0.023,0.130066 -0.01,0.06171 -0.0244,0.122514 -0.0333,0.184403 -0.0145,0.07101 -0.0235,0.142776 -0.0332,0.214583 -0.0191,0.111129 -0.0336,0.222517 -0.0442,0.334738 -0.0115,0.137145 -0.0184,0.274623 -0.0267,0.411986 -0.006,0.13382 -0.0201,0.266863 -0.0426,0.398869 -0.0317,0.164649 -0.0669,0.328566 -0.0985,0.493242 -0.0374,0.172359 -0.0644,0.346653 -0.092,0.520768 -0.024,0.179821 -0.0455,0.360383 -0.0589,0.54138 -0.0142,0.187438 -0.0285,0.374864 -0.0427,0.562313 -0.008,0.146487 -0.0202,0.292672 -0.0265,0.439224 -0.004,0.136851 -0.004,0.27373 -0.009,0.410576 -0.006,0.115974 -0.0139,0.231965 -0.003,0.347794 0.005,0.09533 0.0247,0.188003 0.0513,0.279369 0.0169,0.05521 0.0319,0.111019 0.0538,0.164507 0.0148,0.03503 0.0282,0.07061 0.0424,0.105897 0.009,0.0223 0.0194,0.04373 0.0311,0.06468 0.008,0.01823 0.0145,0.0378 0.0206,0.05704 0.008,0.01931 0.0152,0.03883 0.0213,0.05871 0.004,0.02259 0.01,0.04495 0.0176,0.06656 0.008,0.02705 0.022,0.05171 0.0353,0.07645 0.0133,0.02162 0.0231,0.04621 0.041,0.06461 0.0169,0.024 0.0343,0.0454 0.0576,0.06314 0.0233,0.01812 0.0397,0.04305 0.0639,0.06033 0.0277,0.0091 0.0605,0.01506 0.09,0.01392 0.0216,0.0105 0.0439,0.01675 0.0654,0.02742 0.0137,0.0058 0.0452,0.01294 0.059,0.0094 0.0154,0.0084 0.0287,0.0098 0.0397,0.02519 0.002,0.0011 0.004,0.0021 0.006,0.0033 0,0 0.99203,-0.07609 0.99203,-0.07609 v 0 c -0.002,-0.0034 -0.005,-0.0069 -0.007,-0.01034 -0.0186,-0.0065 -0.0214,-0.03564 -0.0414,-0.04246 -0.0143,-0.01889 -0.0388,-0.0361 -0.063,-0.03628 -0.0136,-0.0011 -0.02,-0.0062 -0.0323,-0.01008 -0.0109,-0.0034 -0.0237,0.0011 -0.0331,-0.0089 -0.0247,-0.01839 -0.061,-0.03139 -0.0917,-0.02715 -0.035,0.01233 -0.0286,0.0078 -0.0587,-0.01254 -0.002,-0.0021 -0.0185,-0.01857 -0.0211,-0.02022 -0.0126,-0.0078 -0.0266,-0.0086 -0.0334,-0.02484 -0.0124,-0.01852 -0.0327,-0.03058 -0.0417,-0.05178 -0.0123,-0.01826 -0.0234,-0.03693 -0.0331,-0.05657 -0.006,-0.01876 -0.0151,-0.0368 -0.0179,-0.05639 -0.005,-0.0249 -0.0134,-0.04825 -0.0211,-0.07233 -0.0104,-0.01937 -0.0147,-0.04137 -0.0212,-0.06217 -0.009,-0.02347 -0.0214,-0.04443 -0.0335,-0.06592 -0.0184,-0.03301 -0.032,-0.06865 -0.0461,-0.103621 -0.024,-0.05018 -0.0449,-0.101566 -0.0625,-0.154409 -0.0305,-0.08276 -0.0511,-0.168354 -0.0575,-0.256582 -0.009,-0.112069 -0.01,-0.224319 -0.007,-0.33668 0.004,-0.136628 0.0108,-0.273084 0.0122,-0.409778 0.005,-0.14563 0.01,-0.291272 0.016,-0.436838 0.01,-0.186521 0.0183,-0.373229 0.0353,-0.55925 0.0214,-0.178998 0.0376,-0.358605 0.0682,-0.536397 0.024,-0.172858 0.0481,-0.345803 0.0869,-0.516119 0.0344,-0.165374 0.0725,-0.329934 0.10816,-0.495053 0.0252,-0.135505 0.0414,-0.272263 0.0459,-0.410134 0.008,-0.13572 0.0124,-0.271703 0.0254,-0.407072 0.0142,-0.111175 0.0387,-0.220385 0.058,-0.330726 0.012,-0.07157 0.0272,-0.142438 0.0391,-0.214015 0.0101,-0.05982 0.0228,-0.119195 0.0363,-0.178325 0.01,-0.04578 0.0197,-0.09172 0.0259,-0.138185 0.006,-0.0434 0.01,-0.08695 0.0174,-0.130092 0.007,-0.0479 0.0167,-0.09561 0.0329,-0.141356 0.009,-0.0282 0.0213,-0.055 0.0299,-0.08322 0.0164,-0.041 0.0326,-0.08208 0.0481,-0.123435 0.0173,-0.04325 0.0377,-0.08525 0.0528,-0.129406 0.0278,-0.06902 0.0593,-0.137316 0.10038,-0.199515 z" /><path
       style="display:inline;fill:#000000;stroke-width:0.264583"
       id="path26"
       d="m 15.475426,23.097667 c 0.12292,0.325656 0.29539,0.6196 0.51938,0.884886 0.23989,0.266335 0.56897,0.398113 0.89982,0.511871 0.21411,0.0637 0.10997,0.03334 0.31239,0.09128 0,0 0.97126,-0.126521 0.97126,-0.126521 v 0 c -0.20467,-0.05712 -0.0996,-0.02826 -0.31532,-0.08645 -0.32152,-0.102955 -0.6494,-0.215731 -0.89351,-0.460135 -0.22418,-0.249253 -0.3987,-0.527 -0.50632,-0.846718 z" /></g></svg>
