<?xml version="1.0" encoding="UTF-8" standalone="no"?>
<!-- Created with Inkscape (http://www.inkscape.org/) -->

<svg
   width="128"
   height="128"
   viewBox="0 0 33.866667 33.866667"
   version="1.1"
   id="svg1"
   xml:space="preserve"
   inkscape:version="1.3 (0e150ed6c4, 2023-07-21)"
   sodipodi:docname="knight.svg"
   inkscape:export-filename="pawn.svg"
   inkscape:export-xdpi="96"
   inkscape:export-ydpi="96"
   xmlns:inkscape="http://www.inkscape.org/namespaces/inkscape"
   xmlns:sodipodi="http://sodipodi.sourceforge.net/DTD/sodipodi-0.dtd"
   xmlns="http://www.w3.org/2000/svg"
   xmlns:svg="http://www.w3.org/2000/svg"><sodipodi:namedview
     id="namedview1"
     pagecolor="#505050"
     bordercolor="#eeeeee"
     borderopacity="1"
     inkscape:showpageshadow="0"
     inkscape:pageopacity="0"
     inkscape:pagecheckerboard="0"
     inkscape:deskcolor="#505050"
     inkscape:document-units="px"
     inkscape:zoom="5.3720019"
     inkscape:cx="84.512256"
     inkscape:cy="76.13549"
     inkscape:window-width="1920"
     inkscape:window-height="1080"
     inkscape:window-x="0"
     inkscape:window-y="0"
     inkscape:window-maximized="1"
     inkscape:current-layer="layer3"
     showgrid="false" /><defs
     id="defs1" /><g
     inkscape:groupmode="layer"
     id="layer3"
     inkscape:label="knight"><rect
       style="display:inline;fill:#000000;stroke-width:0.861328"
       id="rect113"
       width="14.932709"
       height="0.83034551"
       x="11.224061"
       y="32.499821"
       rx="0.011712216"
       ry="0.0033645649" /><rect
       style="display:inline;fill:#000000;stroke-width:0.861328"
       id="rect114"
       width="13.396377"
       height="9.0570183"
       x="11.775365"
       y="21.797716"
       rx="0.011712216"
       ry="0.0033645649" /><path
       style="display:inline;fill:#000000;stroke-width:0.861328"
       d="m 7.9044068,25.882439 3.8732272,-4.084277 v 9.056372 z"
       id="path115" /><path
       style="display:inline;fill:#000000;stroke-width:0.861328"
       d="M 25.16404,30.844877 26.28068,28.6463 V 11.173344 L 19.855043,3.7597864 c 0,0 -0.642326,-0.6371174 -1.419263,-0.6971147 -0.776939,-0.0599 -1.358582,0.00977 -1.358582,0.00977 0,0 0.01303,-0.026042 -0.514357,0.2760593 -0.527768,0.3027536 -0.67986,0.4403926 -0.67986,0.4403926 0,0 -0.730093,-0.97083 -1.473077,-1.2876797 -0.742983,-0.3167519 -1.32453,-0.2972195 -1.32453,-0.2972195 0,0 -0.497429,0.045575 -0.746499,0.1445405 -0.24904,0.098965 -0.326422,0.117195 -0.326422,0.117195 l 2.183115,2.1831143 -6.8319129,6.8319138 c 0,0 -0.8679915,1.052052 -0.250016,1.788363 0.617943,0.736309 1.9680291,1.968028 1.9680291,1.968028 l 2.8404478,-2.634088 h 2.802652 c 0,0 0.59688,-0.170257 1.049025,-0.427436 0.452145,-0.257177 0.87994,-0.758608 0.87994,-0.758608 0,0 0.185558,-0.276059 0.225925,-0.51377 0.04037,-0.237645 0,-2.227324 0,-2.227324 l 0.0065,-0.7747564 c 0,0 0.08073,-0.3659734 0.44967,-0.3683179 0.368936,-0.00255 0.618691,0.00974 0.618691,0.00974 0,0 0.415555,0.1435643 0.465753,0.7803237 0.05013,0.6367268 0,2.6300166 0,2.6300166 l -0.365811,0.753856 1.643399,1.450776 -7.915413,8.645311 h 13.38336 z"
       id="path116" /><path
       style="display:inline;fill:#000000;stroke-width:0.861328"
       d="m 17.925917,0.63361076 c -1.108535,0.0335308 -1.503971,0.32804813 -1.503971,0.32804813 l -1.044694,0.60394471 0.757046,0.4373977 c 0,0 0.108079,-0.077479 0.469334,-0.2877787 0.361221,-0.2102999 0.664529,-0.1767691 0.664529,-0.1767691 0,0 0.971903,-0.013022 1.75291,0.00977 0.781006,0.022789 2.08773,1.0850951 2.08773,1.0850951 l 6.729139,7.8831524 0.06576,0.0472 v 0.07748 c 8.14e-4,0.0033 0.0011,0.0065 0.0017,0.0097 0.0016,0.0097 2.93e-4,0.0033 0.0017,0.01303 h -0.0033 v 13.584426 l 0.900025,-0.684679 V 10.330838 L 28.750007,10.248474 27.740736,8.9917898 26.304089,7.3061356 24.468718,5.0855192 c 0,0 -1.398071,-1.7056751 -2.44436,-2.8212082 C 20.978096,1.1489755 20.12674,0.91347883 20.12674,0.91347883 c 0,0 -1.091866,-0.3144732 -2.200434,-0.28094241 z"
       id="path117" /><path
       style="display:inline;fill:#000000;stroke-width:0.861328"
       d="m 27.731294,10.384655 0.179373,0.218112 0.0033,-0.289407 z"
       id="path123" /></g></svg>
