<?xml version="1.0" encoding="UTF-8" standalone="no"?>
<!-- Created with Inkscape (http://www.inkscape.org/) -->

<svg
   width="128"
   height="128"
   viewBox="0 0 33.866667 33.866667"
   version="1.1"
   id="svg1"
   xml:space="preserve"
   inkscape:version="1.3 (0e150ed6c4, 2023-07-21)"
   sodipodi:docname="pawn.svg"
   inkscape:export-filename="pawn.png"
   inkscape:export-xdpi="96"
   inkscape:export-ydpi="96"
   xmlns:inkscape="http://www.inkscape.org/namespaces/inkscape"
   xmlns:sodipodi="http://sodipodi.sourceforge.net/DTD/sodipodi-0.dtd"
   xmlns="http://www.w3.org/2000/svg"
   xmlns:svg="http://www.w3.org/2000/svg"><sodipodi:namedview
     id="namedview1"
     pagecolor="#505050"
     bordercolor="#eeeeee"
     borderopacity="1"
     inkscape:showpageshadow="0"
     inkscape:pageopacity="0"
     inkscape:pagecheckerboard="0"
     inkscape:deskcolor="#505050"
     inkscape:document-units="px"
     inkscape:zoom="4.3118599"
     inkscape:cx="16.466212"
     inkscape:cy="50.674188"
     inkscape:window-width="1900"
     inkscape:window-height="1035"
     inkscape:window-x="9"
     inkscape:window-y="34"
     inkscape:window-maximized="1"
     inkscape:current-layer="layer4"
     showgrid="false" /><defs
     id="defs1" /><g
     inkscape:groupmode="layer"
     id="layer4"
     inkscape:label="pawn"><path
       style="display:inline;stroke-width:0.996806"
       d="m 15.729809,10.821257 c -0.0539,2.9e-4 -0.107725,0.0015 -0.161622,0.0018 0.03311,1.09e-4 0.06633,3.6e-5 0.09961,0 0.02073,0 0.04135,-0.0016 0.06201,-0.0018 z"
       id="path27" /><path
       style="display:inline;stroke-width:0.996806"
       d="m 17.590416,1.1122473 v 0.0019 a 5.7154188,5.7154188 0 0 0 -0.8119,0.056369 5.7154188,5.7154188 0 0 0 -0.796866,0.1749331 5.7154188,5.7154188 0 0 0 -0.764917,0.2836754 5.7154188,5.7154188 0 0 0 -0.716053,0.3909268 5.7154188,5.7154188 0 0 0 -0.652152,0.488649 5.7154188,5.7154188 0 0 0 -0.576977,0.5769521 5.7154188,5.7154188 0 0 0 -0.488644,0.6521625 5.7154188,5.7154188 0 0 0 -0.390915,0.7160622 5.7154188,5.7154188 0 0 0 -0.285676,0.7649052 5.7154188,5.7154188 0 0 0 -0.172896,0.7968734 5.7154188,5.7154188 0 0 0 -0.05826,0.8137848 5.7154188,5.7154188 0 0 0 0.05826,0.8118941 5.7154188,5.7154188 0 0 0 0.172896,0.7968729 5.7154188,5.7154188 0 0 0 0.285676,0.764905 5.7154188,5.7154188 0 0 0 0.390915,0.716062 5.7154188,5.7154188 0 0 0 0.488644,0.6521632 5.7154188,5.7154188 0 0 0 0.122165,0.122198 c 1.064066,-0.01454 2.128692,-0.02545 3.193104,-0.02545 1.210388,0 1.500363,0.0073 2.698819,0.01819 0.82135,0.01089 1.642964,0.0291 2.463896,0.04692 a 5.7154188,5.7154188 0 0 0 0.161621,-0.16148 5.7154188,5.7154188 0 0 0 0.488646,-0.6521632 5.7154188,5.7154188 0 0 0 0.390915,-0.716061 5.7154188,5.7154188 0 0 0 0.283786,-0.7649109 5.7154188,5.7154188 0 0 0 0.172895,-0.7968741 5.7154188,5.7154188 0 0 0 0.05826,-0.8118931 5.7154188,5.7154188 0 0 0 -0.0054,-0.2818573 A 5.7154188,5.7154188 0 0 0 23.279498,6.2697281 5.7154188,5.7154188 0 0 0 23.243834,5.9896823 5.7154188,5.7154188 0 0 0 23.196848,5.7132807 5.7154188,5.7154188 0 0 0 23.134834,5.4408796 5.7154188,5.7154188 0 0 0 23.059661,5.1702968 5.7154188,5.7154188 0 0 0 22.973213,4.903351 5.7154188,5.7154188 0 0 0 22.871708,4.6422241 5.7154188,5.7154188 0 0 0 22.757075,4.3847341 5.7154188,5.7154188 0 0 0 22.631165,4.1348817 5.7154188,5.7154188 0 0 0 22.493983,3.8904844 5.7154188,5.7154188 0 0 0 22.343635,3.6537245 5.7154188,5.7154188 0 0 0 22.182012,3.4242383 5.7154188,5.7154188 0 0 0 22.009115,3.2023896 5.7154188,5.7154188 0 0 0 21.8268,2.9899968 5.7154188,5.7154188 0 0 0 21.633211,2.7870597 5.7154188,5.7154188 0 0 0 21.430237,2.5935784 5.7154188,5.7154188 0 0 0 21.21788,2.4113717 5.7154188,5.7154188 0 0 0 20.996105,2.2386206 5.7154188,5.7154188 0 0 0 20.766801,2.0771438 5.7154188,5.7154188 0 0 0 20.530003,1.9269412 5.7154188,5.7154188 0 0 0 20.285679,1.7898316 5.7154188,5.7154188 0 0 0 20.035718,1.6621775 5.7154188,5.7154188 0 0 0 19.778227,1.5494348 5.7154188,5.7154188 0 0 0 19.516992,1.4479659 5.7154188,5.7154188 0 0 0 19.250118,1.3595903 5.7154188,5.7154188 0 0 0 18.9795,1.2861253 a 5.7154188,5.7154188 0 0 0 -0.272511,-0.06219 5.7154188,5.7154188 0 0 0 -0.276256,-0.048734 5.7154188,5.7154188 0 0 0 -0.280038,-0.032732 5.7154188,5.7154188 0 0 0 -0.278148,-0.021821 5.7154188,5.7154188 0 0 0 -0.281893,-0.00727 z"
       id="path5" /><rect
       style="display:inline;fill:#000000;stroke-width:0.962253"
       id="rect5"
       width="11.472444"
       height="1.3553643"
       x="11.837361"
       y="12.444695" /><path
       style="display:inline;fill:#000000;stroke-width:0.962253"
       d="m 14.592435,15.729822 -0.04454,2.614907"
       id="path35" /><rect
       style="display:inline;fill:#000000;stroke-width:0.962253"
       id="rect37"
       width="5.8862658"
       height="14.578433"
       x="14.626277"
       y="15.59088"
       ry="0.0037588032" /><path
       style="display:inline;fill:#000000;stroke-width:0.962253"
       d="m 14.62997,15.590421 c 0,0 -0.139801,5.954529 -1.281839,9.389585 -1.142048,3.435091 -2.74369,5.274762 -2.74369,5.274762 h 13.932143 c 0,0 -1.987131,-2.957825 -2.768788,-5.387577 -0.781661,-2.42979 -1.261824,-9.272769 -1.261824,-9.272769 z"
       id="path38" /><rect
       style="display:inline;fill:#000000;stroke-width:0.962253"
       id="rect38"
       width="19.5502"
       height="1.407323"
       x="7.809402"
       y="31.998558"
       rx="0.013084579"
       ry="0.0037588032" /></g></svg>
