<?xml version="1.0" encoding="UTF-8" standalone="no"?>
<!-- Created with Inkscape (http://www.inkscape.org/) -->

<svg
   width="128"
   height="128"
   viewBox="0 0 33.866667 33.866667"
   version="1.1"
   id="svg1"
   xml:space="preserve"
   inkscape:version="1.3 (0e150ed6c4, 2023-07-21)"
   sodipodi:docname="pawn.svg"
   inkscape:export-filename="pawn.png"
   inkscape:export-xdpi="96"
   inkscape:export-ydpi="96"
   xmlns:inkscape="http://www.inkscape.org/namespaces/inkscape"
   xmlns:sodipodi="http://sodipodi.sourceforge.net/DTD/sodipodi-0.dtd"
   xmlns="http://www.w3.org/2000/svg"
   xmlns:svg="http://www.w3.org/2000/svg"><sodipodi:namedview
     id="namedview1"
     pagecolor="#505050"
     bordercolor="#eeeeee"
     borderopacity="1"
     inkscape:showpageshadow="0"
     inkscape:pageopacity="0"
     inkscape:pagecheckerboard="0"
     inkscape:deskcolor="#505050"
     inkscape:document-units="px"
     inkscape:zoom="4.3118599"
     inkscape:cx="33.164343"
     inkscape:cy="89.520533"
     inkscape:window-width="1920"
     inkscape:window-height="1080"
     inkscape:window-x="3000"
     inkscape:window-y="460"
     inkscape:window-maximized="1"
     inkscape:current-layer="layer4"
     showgrid="false" /><defs
     id="defs1" /><g
     inkscape:groupmode="layer"
     id="layer4"
     inkscape:label="pawn"><path
       style="display:inline;stroke-width:0.596467"
       d="m 16.327577,13.747155 c -0.03226,1.74e-4 -0.06446,9.07e-4 -0.09671,0.0011 0.0198,6.6e-5 0.0397,2.3e-5 0.0596,0 0.0124,0 0.02474,-9.88e-4 0.0371,-0.0011 z"
       id="path27" /><path
       style="display:inline;stroke-width:0.596467"
       d="m 17.440923,7.9375001 v 0.0011 a 3.4199791,3.4199791 0 0 0 -0.485823,0.03374 3.4199791,3.4199791 0 0 0 -0.476826,0.104676 3.4199791,3.4199791 0 0 0 -0.45771,0.169746 3.4199791,3.4199791 0 0 0 -0.428471,0.233922 3.4199791,3.4199791 0 0 0 -0.390233,0.2923962 3.4199791,3.4199791 0 0 0 -0.34525,0.345234 3.4199791,3.4199791 0 0 0 -0.292393,0.390242 3.4199791,3.4199791 0 0 0 -0.233914,0.428476 3.4199791,3.4199791 0 0 0 -0.170944,0.4577017 3.4199791,3.4199791 0 0 0 -0.103457,0.47683 3.4199791,3.4199791 0 0 0 -0.03486,0.486952 3.4199791,3.4199791 0 0 0 0.03486,0.485818 3.4199791,3.4199791 0 0 0 0.103457,0.476831 3.4199791,3.4199791 0 0 0 0.170944,0.457702 3.4199791,3.4199791 0 0 0 0.233914,0.428476 3.4199791,3.4199791 0 0 0 0.292393,0.39024 3.4199791,3.4199791 0 0 0 0.07309,0.07312 c 0.636713,-0.0087 1.273762,-0.01524 1.910682,-0.01524 0.724269,0 0.897783,0.0044 1.614913,0.01088 0.491477,0.0066 0.983114,0.0174 1.47434,0.02808 a 3.4199791,3.4199791 0 0 0 0.09671,-0.09662 3.4199791,3.4199791 0 0 0 0.292395,-0.39024 3.4199791,3.4199791 0 0 0 0.233914,-0.428476 3.4199791,3.4199791 0 0 0 0.169812,-0.457702 3.4199791,3.4199791 0 0 0 0.103456,-0.476832 3.4199791,3.4199791 0 0 0 0.03486,-0.485819 3.4199791,3.4199791 0 0 0 -0.0032,-0.168656 3.4199791,3.4199791 0 0 0 -0.0124,-0.16648 3.4199791,3.4199791 0 0 0 -0.02132,-0.16757 3.4199791,3.4199791 0 0 0 -0.02812,-0.165392 3.4199791,3.4199791 0 0 0 -0.0371,-0.162999 3.4199791,3.4199791 0 0 0 -0.04497,-0.161912 3.4199791,3.4199791 0 0 0 -0.05173,-0.159734 3.4199791,3.4199791 0 0 0 -0.06074,-0.156253 3.4199791,3.4199791 0 0 0 -0.0686,-0.1540747 3.4199791,3.4199791 0 0 0 -0.07534,-0.149506 3.4199791,3.4199791 0 0 0 -0.08209,-0.146242 3.4199791,3.4199791 0 0 0 -0.08997,-0.141673 3.4199791,3.4199791 0 0 0 -0.09671,-0.13732 3.4199791,3.4199791 0 0 0 -0.103458,-0.132749 3.4199791,3.4199791 0 0 0 -0.109094,-0.127091 3.4199791,3.4199791 0 0 0 -0.11584,-0.121433 3.4199791,3.4199791 0 0 0 -0.121455,-0.115774 3.4199791,3.4199791 0 0 0 -0.127069,-0.109028 3.4199791,3.4199791 0 0 0 -0.132706,-0.1033712 3.4199791,3.4199791 0 0 0 -0.13721,-0.09662 3.4199791,3.4199791 0 0 0 -0.141694,-0.08988 3.4199791,3.4199791 0 0 0 -0.146198,-0.08204 3.4199791,3.4199791 0 0 0 -0.149572,-0.07638 3.4199791,3.4199791 0 0 0 -0.154076,-0.06747 3.4199791,3.4199791 0 0 0 -0.156318,-0.06072 3.4199791,3.4199791 0 0 0 -0.159691,-0.05288 3.4199791,3.4199791 0 0 0 -0.161932,-0.04396 3.4199791,3.4199791 0 0 0 -0.163065,-0.03721 3.4199791,3.4199791 0 0 0 -0.165305,-0.02917 3.4199791,3.4199791 0 0 0 -0.167568,-0.01958 3.4199791,3.4199791 0 0 0 -0.166437,-0.01306 3.4199791,3.4199791 0 0 0 -0.168679,-0.0044 z"
       id="path5" /><rect
       style="display:inline;fill:#000000;stroke-width:0.57579"
       id="rect5"
       width="6.8648543"
       height="0.8110199"
       x="13.998431"
       y="14.718589" /><path
       style="display:inline;fill:#000000;stroke-width:0.57579"
       d="m 15.646996,16.684333 -0.02666,1.564699"
       id="path35" /><rect
       style="display:inline;fill:#000000;stroke-width:0.57579"
       id="rect37"
       width="3.5222101"
       height="8.7234077"
       x="15.667252"
       y="16.601194"
       ry="0.0022491838" /><path
       style="display:inline;fill:#000000;stroke-width:0.57579"
       d="m 15.669458,16.600918 c 0,0 -0.08366,3.563057 -0.767024,5.618516 -0.683376,2.055482 -1.641763,3.156301 -1.641763,3.156301 h 8.336684 c 0,0 -1.189056,-1.769897 -1.656782,-3.223807 -0.467728,-1.453931 -0.755048,-5.548617 -0.755048,-5.548617 z"
       id="path38" /><rect
       style="display:inline;fill:#000000;stroke-width:0.636924"
       id="rect44-2-4"
       width="13.762583"
       height="1.0254551"
       x="10.583333"
       y="26.341093"
       rx="0.008660811"
       ry="0.0024879891" /></g></svg>
